<?xml version="1.0" encoding="iso-8859-1"?>
<!-- Generator: Adobe Illustrator 18.0.0, SVG Export Plug-In . SVG Version: 6.00 Build 0)  -->
<!DOCTYPE svg PUBLIC "-//W3C//DTD SVG 1.1//EN" "http://www.w3.org/Graphics/SVG/1.1/DTD/svg11.dtd">
<svg version="1.1" id="Capa_1" xmlns="http://www.w3.org/2000/svg" xmlns:xlink="http://www.w3.org/1999/xlink" x="0px" y="0px"
	 viewBox="0 0 294.533 294.533" style="enable-background:new 0 0 294.533 294.533;" xml:space="preserve">
<g>
	<path d="M287.533,104.733h-48.531l-118.45-86.261c-13.049-9.972-31.781-7.509-41.806,5.516c-0.114,0.148-0.223,0.302-0.324,0.459
		c-4.385,6.759-5.618,14.476-3.664,22.937c5.368,23.244,35.533,48.308,56.137,63.092h-20.399c-0.495,0-0.978,0.053-1.443,0.151
		c-0.929-0.098-1.871-0.151-2.825-0.151H26.714C11.983,110.475,0,122.459,0,137.189c0,9.657,5.151,18.134,12.85,22.827
		c-3.63,4.563-5.807,10.331-5.807,16.601c0,11.303,7.06,20.982,16.999,24.877c-2.732,4.19-4.328,9.186-4.328,14.551
		c0,11.079,6.78,20.602,16.407,24.644c-2.826,4.237-4.478,9.321-4.478,14.784c0,14.73,11.983,26.714,26.714,26.714H93.29
		c0.001,0,0.002,0,0.003,0h2.727c0.016,0,0.032-0.001,0.049-0.001l85.231-0.038c0.066,0,0.133-0.001,0.2-0.003
		c31.268-0.905,57.875-12.742,74.25-32.752h31.784c3.866,0,7-3.134,7-7V111.733C294.533,107.866,291.399,104.733,287.533,104.733z
		 M26.714,124.475h79.513c7.011,0,12.714,5.704,12.714,12.714s-5.703,12.714-12.714,12.714h-72.47h-7.043
		c-7.011,0-12.714-5.704-12.714-12.714S19.703,124.475,26.714,124.475z M33.757,163.903h72.47c7.011,0,12.714,5.704,12.714,12.714
		s-5.703,12.714-12.714,12.714H46.428H33.757c-7.011,0-12.714-5.704-12.714-12.714S26.746,163.903,33.757,163.903z M46.428,203.33
		h59.799c7.011,0,12.714,5.704,12.714,12.714s-5.703,12.714-12.714,12.714H96.02H58.357h-11.93c-7.011,0-12.714-5.704-12.714-12.714
		S39.417,203.33,46.428,203.33z M45.644,255.472c0-7.01,5.703-12.714,12.714-12.714H96.02c7.011,0,12.714,5.704,12.714,12.714
		c0,7.002-5.69,12.699-12.69,12.713l-2.757,0.001h-34.93C51.347,268.186,45.644,262.482,45.644,255.472z M181.192,268.147
		l-61.677,0.027c2.052-3.78,3.218-8.107,3.218-12.702c0-5.722-1.814-11.024-4.889-15.376c8.927-4.329,15.096-13.483,15.096-24.052
		c0-7.798-3.36-14.826-8.707-19.714c5.347-4.888,8.707-11.916,8.707-19.714s-3.36-14.826-8.707-19.714
		c5.347-4.888,8.707-11.916,8.707-19.714c0-4.6-1.168-8.931-3.224-12.714h17.651c0.656,6.856,2.502,18.014,7.641,30.962
		c7.666,19.318,24.454,46.577,60.901,66.732c1.074,0.594,2.235,0.876,3.382,0.876c2.464,0,4.854-1.305,6.132-3.614
		c1.871-3.383,0.645-7.643-2.738-9.513c-26.124-14.447-44.434-34.311-54.421-59.039c-7.477-18.512-7.255-33.022-7.25-33.224
		c0.004-0.164-0.005-0.324-0.012-0.485c-0.002-0.049,0-0.099-0.004-0.148c-0.021-0.338-0.071-0.669-0.139-0.993
		c-0.012-0.056-0.025-0.11-0.038-0.165c-0.079-0.336-0.177-0.665-0.303-0.981c0-0.002-0.001-0.003-0.002-0.005
		c-0.127-0.317-0.281-0.62-0.451-0.912c-0.026-0.045-0.05-0.09-0.077-0.135c-0.171-0.279-0.361-0.544-0.568-0.796
		c-0.042-0.052-0.087-0.102-0.131-0.153c-0.22-0.252-0.453-0.492-0.706-0.711c-0.022-0.019-0.046-0.035-0.068-0.054
		c-0.265-0.223-0.546-0.425-0.843-0.606c-0.018-0.011-0.032-0.025-0.05-0.036c-0.029-0.018-0.061-0.037-0.09-0.055
		c-0.005-0.002-0.009-0.005-0.014-0.008c-17.42-10.492-63.493-42.819-69.119-67.18c-1.058-4.58-0.529-8.486,1.616-11.929
		c5.378-6.738,15.222-7.953,22.077-2.676c0.05,0.038,0.099,0.075,0.148,0.111l117.585,85.631l23.025,59.832
		c8.484,22.046,6.956,43.505-4.305,60.424C235.377,255.414,210.831,267.264,181.192,268.147z M280.533,235.392h-15.717
		c9.549-19.285,10-42.096,1.102-65.218l-19.796-51.441h34.412V235.392z"/>
</g>
<g>
</g>
<g>
</g>
<g>
</g>
<g>
</g>
<g>
</g>
<g>
</g>
<g>
</g>
<g>
</g>
<g>
</g>
<g>
</g>
<g>
</g>
<g>
</g>
<g>
</g>
<g>
</g>
<g>
</g>
</svg>
