<svg id="car-stop" enable-background="new 0 0 64 64" height="120" viewBox="0 0 300 300" width="120" xmlns="http://www.w3.org/2000/svg"><path d="m227.614 89.901c-4.212 0-8.083 1.465-11.153 3.898-2.556-6.833-9.133-11.72-16.847-11.72-3.786 0-7.299 1.181-10.201 3.186-1.231-8.571-8.602-15.186-17.508-15.186h-.714c-5.524 0-10.462 2.545-13.712 6.527-3.254-4.017-8.198-6.62-13.728-6.682-4.811-.072-9.378 1.785-12.811 5.18-3.434 3.395-5.324 7.923-5.324 12.752v34.794c0 2.03-1.098 3.757-2.937 4.618-1.775.832-3.729.616-5.265-.57l-30.33-32.164c-3.544-3.759-8.341-5.871-13.507-5.947-5.14-.079-10.022 1.895-13.676 5.547-6.587 6.587-7.371 17.198-1.823 24.682l33.251 44.851c7.773 12.691 12.778 22.772 16.221 32.668 7.021 20.183 26.11 33.743 47.5 33.743h46.592c24.246 0 43.972-19.726 43.972-43.972v-42.028-36.178c0-9.925-8.075-17.999-18-17.999zm0 8c5.514 0 10 4.486 10 10v36.178c0 5.514-4.486 10-10 10s-10-4.486-10-10v-36.178c0-5.515 4.486-10 10-10zm-28-7.823c5.514 0 10 4.486 10 10v44c0 5.514-4.486 10-10 10s-10-4.486-10-10v-44c0-5.514 4.486-10 10-10zm-28.424-12h.714c5.354 0 9.709 4.355 9.709 9.709v52.581c0 5.354-4.355 9.709-9.709 9.709h-.714c-5.168 0-9.216-4.393-9.216-10 0-.015 0-.03 0-.045l-.493-52.245c0-5.353 4.355-9.709 9.709-9.709zm-37.576 9.778c0-2.674 1.047-5.183 2.949-7.063s4.4-2.88 7.096-2.87c5.416.061 9.821 4.517 9.821 9.933v.003l.493 52.22c0 5.327-4.705 10-10.069 10h-.714c-5.354 0-9.709-4.355-9.709-9.709zm68.028 134.222h-46.592c-17.989 0-34.041-11.402-39.945-28.372-3.652-10.499-8.91-21.1-17.048-34.371-.062-.1-.127-.197-.197-.292l-33.356-44.992c-3.206-4.324-2.753-10.455 1.053-14.26 2.11-2.111 4.901-3.236 7.902-3.206 2.985.044 5.756 1.264 7.804 3.436l30.515 32.363c.11.116.227.226.35.329 3.781 3.152 8.842 3.909 13.353 2.051v5.605c0 9.765 7.944 17.709 17.709 17.709h.714c2.346 0 4.602-.477 6.681-1.331 4.482 4.488 7.029 10.579 7.029 16.96v12.371c0 2.209 1.791 4 4 4s4-1.791 4-4v-12.371c0-8.039-3.027-15.735-8.4-21.606.207-.227.41-.458.606-.695 3.159 4.068 7.979 6.672 13.37 6.672h.714c4.73 0 9.022-1.875 12.202-4.907 3.131 5.319 8.902 8.907 15.508 8.907 5.652 0 10.698-2.624 14-6.711 3.302 4.088 8.348 6.711 14 6.711 3.698 0 7.138-1.124 10-3.044v27.072c0 19.836-16.137 35.972-35.972 35.972z"/></svg>